<svg width="3337" height="1080" viewBox="0 0 3337 1080" fill="none" xmlns="http://www.w3.org/2000/svg">
<rect width="3337" height="1080" fill="black"/>
<rect width="1080" height="1080" fill="white"/>
<path d="M281.829 263.536C308.487 263.536 330.097 241.925 330.097 215.268C330.097 188.61 308.487 167 281.829 167C255.172 167 233.562 188.61 233.562 215.268C233.562 241.925 255.172 263.536 281.829 263.536Z" fill="black"/>
<path d="M416.657 304.191C450.037 304.191 477.097 277.131 477.097 243.751C477.097 210.371 450.037 183.311 416.657 183.311C383.277 183.311 356.217 210.371 356.217 243.751C356.217 277.131 383.277 304.191 416.657 304.191Z" fill="black"/>
<path d="M576.136 362.189C617.538 362.189 651.1 328.626 651.1 287.225C651.1 245.824 617.538 212.262 576.136 212.262C534.735 212.262 501.173 245.824 501.173 287.225C501.173 328.626 534.735 362.189 576.136 362.189Z" fill="black"/>
<path d="M751.199 430.116C792.498 430.116 825.977 396.637 825.977 355.338C825.977 314.04 792.498 280.561 751.199 280.561C709.901 280.561 676.422 314.04 676.422 355.338C676.422 396.637 709.901 430.116 751.199 430.116Z" fill="black"/>
<path d="M674.22 630.616C719.044 630.616 755.381 594.279 755.381 549.454C755.381 504.63 719.044 468.293 674.22 468.293C629.396 468.293 593.059 504.63 593.059 549.454C593.059 594.279 629.396 630.616 674.22 630.616Z" fill="black"/>
<path d="M486.791 623.926C527.918 623.926 561.259 590.585 561.259 549.458C561.259 508.331 527.918 474.99 486.791 474.99C445.664 474.99 412.323 508.331 412.323 549.458C412.323 590.585 445.664 623.926 486.791 623.926Z" fill="black"/>
<path d="M863.629 623.926C904.756 623.926 938.096 590.585 938.096 549.458C938.096 508.331 904.756 474.99 863.629 474.99C822.501 474.99 789.161 508.331 789.161 549.458C789.161 590.585 822.501 623.926 863.629 623.926Z" fill="black"/>
<path d="M328.109 611.44C362.344 611.44 390.097 583.687 390.097 549.451C390.097 515.216 362.344 487.463 328.109 487.463C293.873 487.463 266.12 515.216 266.12 549.451C266.12 583.687 293.873 611.44 328.109 611.44Z" fill="black"/>
<path d="M190.048 598.472C217.137 598.472 239.097 576.512 239.097 549.423C239.097 522.335 217.137 500.375 190.048 500.375C162.96 500.375 141 522.335 141 549.423C141 576.512 162.96 598.472 190.048 598.472Z" fill="black"/>
<path d="M751.233 818.319C792.531 818.319 826.01 784.84 826.01 743.541C826.01 702.243 792.531 668.764 751.233 668.764C709.934 668.764 676.455 702.243 676.455 743.541C676.455 784.84 709.934 818.319 751.233 818.319Z" fill="black"/>
<path d="M576.106 886.681C617.507 886.681 651.07 853.119 651.07 811.717C651.07 770.316 617.507 736.754 576.106 736.754C534.705 736.754 501.143 770.316 501.143 811.717C501.143 853.119 534.705 886.681 576.106 886.681Z" fill="black"/>
<path d="M416.659 915.594C450.037 915.594 477.096 888.536 477.096 855.157C477.096 821.778 450.037 794.719 416.659 794.719C383.28 794.719 356.221 821.778 356.221 855.157C356.221 888.536 383.28 915.594 416.659 915.594Z" fill="black"/>
<path d="M284.829 930.875C310.935 930.875 332.097 909.713 332.097 883.608C332.097 857.502 310.935 836.34 284.829 836.34C258.724 836.34 237.562 857.502 237.562 883.608C237.562 909.713 258.724 930.875 284.829 930.875Z" fill="black"/>
<path d="M2956.19 806.361C2937.17 806.361 2927.65 796.847 2927.65 777.819V452.291C2927.65 433.52 2937.17 424.135 2956.19 424.135C2974.96 424.135 2984.35 433.52 2984.35 452.291V492.403C2999.01 470.033 3018.29 453.062 3042.2 441.491C3066.37 429.92 3094.4 424.135 3126.29 424.135C3145.31 424.135 3154.83 433.52 3154.83 452.291C3154.83 471.318 3145.31 480.832 3126.29 480.832C3081.29 480.832 3046.83 489.832 3022.92 507.831C2999.01 525.573 2986.15 549.872 2984.35 580.728V777.819C2984.35 796.847 2974.96 806.361 2956.19 806.361Z" fill="white"/>
<path d="M2663.41 806.361C2613.27 806.361 2576.12 794.404 2551.95 770.491C2528.03 746.578 2516.08 709.68 2516.08 659.796V571.086C2516.08 520.431 2528.03 483.275 2551.95 459.619C2576.12 435.706 2613.27 423.878 2663.41 424.135H2726.67C2776.81 424.135 2813.83 436.092 2837.75 460.005C2861.66 483.918 2873.62 520.945 2873.62 571.086V659.025C2873.62 709.165 2861.66 746.321 2837.75 770.491C2813.83 794.404 2776.81 806.361 2726.67 806.361H2663.41ZM2572.77 659.796C2572.77 693.995 2579.2 717.522 2592.06 730.379C2604.92 743.235 2628.7 749.664 2663.41 749.664H2726.67C2761.38 749.664 2785.04 743.235 2797.64 730.379C2810.49 717.522 2816.92 693.737 2816.92 659.025V571.086C2816.92 536.373 2810.49 512.717 2797.64 500.117C2785.04 487.261 2761.38 480.833 2726.67 480.833H2663.41C2640.27 480.833 2622.14 483.532 2609.03 488.932C2595.92 494.332 2586.53 503.589 2580.87 516.702C2575.47 529.816 2572.77 547.944 2572.77 571.086V659.796Z" fill="white"/>
<path d="M2148.85 806.362C2129.82 806.362 2120.31 796.848 2120.31 777.82V294.156C2120.31 275.385 2129.82 266 2148.85 266C2167.62 266 2177.01 275.385 2177.01 294.156V469.648C2189.86 454.477 2206.45 443.035 2226.76 435.321C2247.33 427.607 2272.27 423.75 2301.59 423.75H2330.9C2381.04 423.75 2418.07 435.707 2441.98 459.62C2465.89 483.533 2477.85 520.689 2477.85 571.087V659.026C2477.85 709.166 2465.89 746.322 2441.98 770.492C2418.07 794.405 2381.04 806.362 2330.9 806.362H2301.59C2272.27 806.362 2247.33 802.505 2226.76 794.791C2206.45 787.077 2189.86 775.763 2177.01 760.85V777.82C2177.01 796.848 2167.62 806.362 2148.85 806.362ZM2301.59 749.665H2330.9C2365.61 749.665 2389.27 743.236 2401.87 730.38C2414.72 717.266 2421.15 693.481 2421.15 659.026V571.087C2421.15 536.374 2414.6 512.589 2401.48 499.733C2388.63 486.876 2365.1 480.448 2330.9 480.448H2301.59C2265.59 480.448 2235.76 485.462 2212.1 495.49C2188.71 505.518 2177.01 520.817 2177.01 541.388V689.11C2177.26 709.423 2189.09 724.594 2212.49 734.622C2235.89 744.65 2265.59 749.665 2301.59 749.665Z" fill="white"/>
<path d="M1765.43 638.197V659.797C1765.43 693.995 1771.86 717.523 1784.71 730.379C1797.57 743.236 1821.36 749.664 1856.07 749.664H1919.32C1947.61 749.664 1968.31 746.707 1981.42 740.793C1994.79 734.622 2003.41 723.951 2007.26 708.78C2009.32 700.295 2012.53 693.738 2016.9 689.11C2021.53 684.481 2028.35 682.167 2037.35 682.167C2046.86 682.167 2054.06 684.738 2058.95 689.881C2063.83 694.766 2065.5 701.966 2063.96 711.48C2059.07 743.621 2044.55 767.535 2020.38 783.22C1996.46 798.648 1962.78 806.362 1919.32 806.362H1856.07C1805.93 806.362 1768.77 794.405 1744.6 770.492C1720.69 746.578 1708.73 709.68 1708.73 659.797V571.086C1708.73 520.174 1720.69 482.89 1744.6 459.234C1768.77 435.321 1805.93 423.621 1856.07 424.135H1919.32C1969.46 424.135 2006.49 436.092 2030.4 460.005C2054.32 483.661 2066.27 520.688 2066.27 571.086V609.656C2066.27 628.684 2056.89 638.197 2038.12 638.197H1765.43ZM1856.07 480.833C1821.36 480.319 1797.57 486.49 1784.71 499.346C1771.86 512.203 1765.43 536.116 1765.43 571.086V581.5H2009.58V571.086C2009.58 536.373 2003.15 512.717 1990.29 500.118C1977.69 487.261 1954.04 480.833 1919.32 480.833H1856.07Z" fill="white"/>
<path d="M1292.54 806.362C1273.51 806.362 1264 796.848 1264 777.821V320.383C1264 301.356 1273.51 291.842 1292.54 291.842H1478.45C1544.53 291.842 1593 307.398 1623.86 338.511C1654.71 369.367 1670.14 417.836 1670.14 483.919V614.285C1670.14 680.368 1654.71 728.966 1623.86 760.078C1593.26 790.934 1544.79 806.362 1478.45 806.362H1292.54ZM1320.7 749.665H1478.45C1511.87 749.665 1538.49 745.422 1558.29 736.937C1578.09 728.451 1592.23 714.309 1600.71 694.51C1609.2 674.711 1613.44 647.969 1613.44 614.285V483.919C1613.44 450.492 1609.2 423.879 1600.71 404.08C1592.23 384.281 1578.09 370.138 1558.29 361.653C1538.49 352.911 1511.87 348.539 1478.45 348.539H1320.7V749.665Z" fill="white"/>
</svg>
