<svg width="3053" height="1080" viewBox="0 0 3053 1080" fill="none" xmlns="http://www.w3.org/2000/svg">
<path d="M252.829 254.536C279.487 254.536 301.097 232.925 301.097 206.268C301.097 179.61 279.487 158 252.829 158C226.172 158 204.562 179.61 204.562 206.268C204.562 232.925 226.172 254.536 252.829 254.536Z" fill="white"/>
<path d="M387.657 295.191C421.037 295.191 448.097 268.131 448.097 234.751C448.097 201.371 421.037 174.311 387.657 174.311C354.277 174.311 327.217 201.371 327.217 234.751C327.217 268.131 354.277 295.191 387.657 295.191Z" fill="white"/>
<path d="M547.136 353.189C588.538 353.189 622.1 319.626 622.1 278.225C622.1 236.824 588.538 203.262 547.136 203.262C505.735 203.262 472.173 236.824 472.173 278.225C472.173 319.626 505.735 353.189 547.136 353.189Z" fill="white"/>
<path d="M722.199 421.116C763.498 421.116 796.977 387.637 796.977 346.338C796.977 305.04 763.498 271.561 722.199 271.561C680.901 271.561 647.422 305.04 647.422 346.338C647.422 387.637 680.901 421.116 722.199 421.116Z" fill="white"/>
<path d="M645.22 621.616C690.044 621.616 726.381 585.279 726.381 540.454C726.381 495.63 690.044 459.293 645.22 459.293C600.396 459.293 564.059 495.63 564.059 540.454C564.059 585.279 600.396 621.616 645.22 621.616Z" fill="white"/>
<path d="M457.791 614.926C498.918 614.926 532.259 581.585 532.259 540.458C532.259 499.331 498.918 465.99 457.791 465.99C416.664 465.99 383.323 499.331 383.323 540.458C383.323 581.585 416.664 614.926 457.791 614.926Z" fill="white"/>
<path d="M834.629 614.926C875.756 614.926 909.096 581.585 909.096 540.458C909.096 499.331 875.756 465.99 834.629 465.99C793.501 465.99 760.161 499.331 760.161 540.458C760.161 581.585 793.501 614.926 834.629 614.926Z" fill="white"/>
<path d="M299.109 602.44C333.344 602.44 361.097 574.687 361.097 540.451C361.097 506.216 333.344 478.463 299.109 478.463C264.873 478.463 237.12 506.216 237.12 540.451C237.12 574.687 264.873 602.44 299.109 602.44Z" fill="white"/>
<path d="M161.048 589.472C188.137 589.472 210.097 567.512 210.097 540.423C210.097 513.335 188.137 491.375 161.048 491.375C133.96 491.375 112 513.335 112 540.423C112 567.512 133.96 589.472 161.048 589.472Z" fill="white"/>
<path d="M722.233 809.319C763.531 809.319 797.01 775.84 797.01 734.541C797.01 693.243 763.531 659.764 722.233 659.764C680.934 659.764 647.455 693.243 647.455 734.541C647.455 775.84 680.934 809.319 722.233 809.319Z" fill="white"/>
<path d="M547.106 877.681C588.507 877.681 622.07 844.119 622.07 802.717C622.07 761.316 588.507 727.754 547.106 727.754C505.705 727.754 472.143 761.316 472.143 802.717C472.143 844.119 505.705 877.681 547.106 877.681Z" fill="white"/>
<path d="M387.659 906.594C421.037 906.594 448.096 879.536 448.096 846.157C448.096 812.778 421.037 785.719 387.659 785.719C354.28 785.719 327.221 812.778 327.221 846.157C327.221 879.536 354.28 906.594 387.659 906.594Z" fill="white"/>
<path d="M255.829 921.875C281.935 921.875 303.097 900.713 303.097 874.608C303.097 848.502 281.935 827.34 255.829 827.34C229.724 827.34 208.562 848.502 208.562 874.608C208.562 900.713 229.724 921.875 255.829 921.875Z" fill="white"/>
<path d="M2743.19 797.361C2724.17 797.361 2714.65 787.847 2714.65 768.819V443.291C2714.65 424.52 2724.17 415.135 2743.19 415.135C2761.96 415.135 2771.35 424.52 2771.35 443.291V483.403C2786.01 461.033 2805.29 444.062 2829.2 432.491C2853.37 420.92 2881.4 415.135 2913.29 415.135C2932.31 415.135 2941.83 424.52 2941.83 443.291C2941.83 462.318 2932.31 471.832 2913.29 471.832C2868.29 471.832 2833.83 480.832 2809.92 498.831C2786.01 516.573 2773.15 540.872 2771.35 571.728V768.819C2771.35 787.847 2761.96 797.361 2743.19 797.361Z" fill="white"/>
<path d="M2450.41 797.361C2400.27 797.361 2363.12 785.404 2338.95 761.491C2315.03 737.578 2303.08 700.68 2303.08 650.796V562.086C2303.08 511.431 2315.03 474.275 2338.95 450.619C2363.12 426.706 2400.27 414.878 2450.41 415.135H2513.67C2563.81 415.135 2600.83 427.092 2624.75 451.005C2648.66 474.918 2660.62 511.945 2660.62 562.086V650.025C2660.62 700.165 2648.66 737.321 2624.75 761.491C2600.83 785.404 2563.81 797.361 2513.67 797.361H2450.41ZM2359.77 650.796C2359.77 684.995 2366.2 708.522 2379.06 721.379C2391.92 734.235 2415.7 740.664 2450.41 740.664H2513.67C2548.38 740.664 2572.04 734.235 2584.64 721.379C2597.49 708.522 2603.92 684.737 2603.92 650.025V562.086C2603.92 527.373 2597.49 503.717 2584.64 491.117C2572.04 478.261 2548.38 471.833 2513.67 471.833H2450.41C2427.27 471.833 2409.14 474.532 2396.03 479.932C2382.92 485.332 2373.53 494.589 2367.87 507.702C2362.47 520.816 2359.77 538.944 2359.77 562.086V650.796Z" fill="white"/>
<path d="M1935.85 797.362C1916.82 797.362 1907.31 787.848 1907.31 768.82V285.156C1907.31 266.385 1916.82 257 1935.85 257C1954.62 257 1964.01 266.385 1964.01 285.156V460.648C1976.86 445.477 1993.45 434.035 2013.76 426.321C2034.33 418.607 2059.27 414.75 2088.59 414.75H2117.9C2168.04 414.75 2205.07 426.707 2228.98 450.62C2252.89 474.533 2264.85 511.689 2264.85 562.087V650.026C2264.85 700.166 2252.89 737.322 2228.98 761.492C2205.07 785.405 2168.04 797.362 2117.9 797.362H2088.59C2059.27 797.362 2034.33 793.505 2013.76 785.791C1993.45 778.077 1976.86 766.763 1964.01 751.85V768.82C1964.01 787.848 1954.62 797.362 1935.85 797.362ZM2088.59 740.665H2117.9C2152.61 740.665 2176.27 734.236 2188.87 721.38C2201.72 708.266 2208.15 684.481 2208.15 650.026V562.087C2208.15 527.374 2201.6 503.589 2188.48 490.733C2175.63 477.876 2152.1 471.448 2117.9 471.448H2088.59C2052.59 471.448 2022.76 476.462 1999.1 486.49C1975.71 496.518 1964.01 511.817 1964.01 532.388V680.11C1964.26 700.423 1976.09 715.594 1999.49 725.622C2022.89 735.65 2052.59 740.665 2088.59 740.665Z" fill="white"/>
<path d="M1552.43 629.197V650.797C1552.43 684.995 1558.86 708.523 1571.72 721.379C1584.57 734.236 1608.36 740.664 1643.07 740.664H1706.32C1734.61 740.664 1755.31 737.707 1768.42 731.793C1781.79 725.622 1790.41 714.951 1794.26 699.78C1796.32 691.295 1799.53 684.738 1803.91 680.11C1808.53 675.481 1815.35 673.167 1824.35 673.167C1833.86 673.167 1841.06 675.738 1845.95 680.881C1850.83 685.766 1852.5 692.966 1850.96 702.48C1846.08 734.621 1831.55 758.535 1807.38 774.22C1783.46 789.648 1749.78 797.362 1706.32 797.362H1643.07C1592.93 797.362 1555.77 785.405 1531.6 761.492C1507.69 737.578 1495.73 700.68 1495.73 650.797V562.086C1495.73 511.174 1507.69 473.89 1531.6 450.234C1555.77 426.321 1592.93 414.621 1643.07 415.135H1706.32C1756.46 415.135 1793.49 427.092 1817.41 451.005C1841.32 474.661 1853.27 511.688 1853.27 562.086V600.656C1853.27 619.684 1843.89 629.197 1825.12 629.197H1552.43ZM1643.07 471.833C1608.36 471.319 1584.57 477.49 1571.72 490.346C1558.86 503.203 1552.43 527.116 1552.43 562.086V572.5H1796.58V562.086C1796.58 527.373 1790.15 503.717 1777.29 491.118C1764.69 478.261 1741.04 471.833 1706.32 471.833H1643.07Z" fill="white"/>
<path d="M1079.54 797.362C1060.51 797.362 1051 787.848 1051 768.821V311.383C1051 292.356 1060.51 282.842 1079.54 282.842H1265.45C1331.53 282.842 1380 298.398 1410.86 329.511C1441.71 360.367 1457.14 408.836 1457.14 474.919V605.285C1457.14 671.368 1441.71 719.966 1410.86 751.078C1380.26 781.934 1331.79 797.362 1265.45 797.362H1079.54ZM1107.7 740.665H1265.45C1298.87 740.665 1325.49 736.422 1345.29 727.937C1365.09 719.451 1379.23 705.309 1387.71 685.51C1396.2 665.711 1400.44 638.969 1400.44 605.285V474.919C1400.44 441.492 1396.2 414.879 1387.71 395.08C1379.23 375.281 1365.09 361.138 1345.29 352.653C1325.49 343.911 1298.87 339.539 1265.45 339.539H1107.7V740.665Z" fill="white"/>
</svg>
