<svg width="1080" height="1080" viewBox="0 0 1080 1080" fill="none" xmlns="http://www.w3.org/2000/svg">
<rect width="1080" height="1080" fill="black"/>
<path d="M281.829 254.536C308.487 254.536 330.097 232.925 330.097 206.268C330.097 179.61 308.487 158 281.829 158C255.172 158 233.562 179.61 233.562 206.268C233.562 232.925 255.172 254.536 281.829 254.536Z" fill="white"/>
<path d="M416.657 295.191C450.037 295.191 477.097 268.131 477.097 234.751C477.097 201.371 450.037 174.311 416.657 174.311C383.277 174.311 356.217 201.371 356.217 234.751C356.217 268.131 383.277 295.191 416.657 295.191Z" fill="white"/>
<path d="M576.136 353.189C617.538 353.189 651.1 319.626 651.1 278.225C651.1 236.824 617.538 203.262 576.136 203.262C534.735 203.262 501.173 236.824 501.173 278.225C501.173 319.626 534.735 353.189 576.136 353.189Z" fill="white"/>
<path d="M751.199 421.116C792.498 421.116 825.977 387.637 825.977 346.338C825.977 305.04 792.498 271.561 751.199 271.561C709.901 271.561 676.422 305.04 676.422 346.338C676.422 387.637 709.901 421.116 751.199 421.116Z" fill="white"/>
<path d="M674.22 621.616C719.044 621.616 755.381 585.279 755.381 540.454C755.381 495.63 719.044 459.293 674.22 459.293C629.396 459.293 593.059 495.63 593.059 540.454C593.059 585.279 629.396 621.616 674.22 621.616Z" fill="white"/>
<path d="M486.791 614.926C527.918 614.926 561.259 581.585 561.259 540.458C561.259 499.331 527.918 465.99 486.791 465.99C445.664 465.99 412.323 499.331 412.323 540.458C412.323 581.585 445.664 614.926 486.791 614.926Z" fill="white"/>
<path d="M863.629 614.926C904.756 614.926 938.096 581.585 938.096 540.458C938.096 499.331 904.756 465.99 863.629 465.99C822.501 465.99 789.161 499.331 789.161 540.458C789.161 581.585 822.501 614.926 863.629 614.926Z" fill="white"/>
<path d="M328.109 602.44C362.344 602.44 390.097 574.687 390.097 540.451C390.097 506.216 362.344 478.463 328.109 478.463C293.873 478.463 266.12 506.216 266.12 540.451C266.12 574.687 293.873 602.44 328.109 602.44Z" fill="white"/>
<path d="M190.048 589.472C217.137 589.472 239.097 567.512 239.097 540.423C239.097 513.335 217.137 491.375 190.048 491.375C162.96 491.375 141 513.335 141 540.423C141 567.512 162.96 589.472 190.048 589.472Z" fill="white"/>
<path d="M751.233 809.319C792.531 809.319 826.01 775.84 826.01 734.541C826.01 693.243 792.531 659.764 751.233 659.764C709.934 659.764 676.455 693.243 676.455 734.541C676.455 775.84 709.934 809.319 751.233 809.319Z" fill="white"/>
<path d="M576.106 877.681C617.507 877.681 651.07 844.119 651.07 802.717C651.07 761.316 617.507 727.754 576.106 727.754C534.705 727.754 501.143 761.316 501.143 802.717C501.143 844.119 534.705 877.681 576.106 877.681Z" fill="white"/>
<path d="M416.659 906.594C450.037 906.594 477.096 879.536 477.096 846.157C477.096 812.778 450.037 785.719 416.659 785.719C383.28 785.719 356.221 812.778 356.221 846.157C356.221 879.536 383.28 906.594 416.659 906.594Z" fill="white"/>
<path d="M284.829 921.875C310.935 921.875 332.097 900.713 332.097 874.608C332.097 848.502 310.935 827.34 284.829 827.34C258.724 827.34 237.562 848.502 237.562 874.608C237.562 900.713 258.724 921.875 284.829 921.875Z" fill="white"/>
</svg>
